Format : MPEG-4 
Format profile : Base Media / Version 2 
Codec ID : mp42 
File size : 83.7 MiB 
Duration : 23mn 9s 
Overall bit rate mode : Variable 
Overall bit rate : 505 Kbps
Writing application : mp4creator 1.4.4 

Video 
ID : 1 
Format : MPEG-4 Visual 
Format profile : Simple@L1 
Format settings, Matrix : Default (H.263) 
Codec ID : 20 
Duration : 23mn 9s 
Bit rate mode : Variable 
Bit rate : 387 Kbps 
Maximum bit rate : 2 932 Kbps 
Width : 640 pixels 
Height : 360 pixels 
Display aspect ratio : 16:9 
Frame rate mode : Variable 
Frame rate : 23.976 fps 
Minimum frame rate : 23.974 fps 
Maximum frame rate : 23.981 fps 
Color space : YUV 
Chroma subsampling : 4:2:0 
Bit depth : 8 bits 
Scan type : Progressive 
Compression mode : Lossy 
Bits/(Pixel*Frame) : 0.070 
Stream size : 64.1 MiB (77%) 
Language : English 

Audio 
ID : 2 
Format : AAC 
Format/Info : Advanced Audio Codec 
Format profile : LC 
Codec ID : 40 
Duration : 23mn 9s 
Bit rate mode : Variable 
Bit rate : 115 Kbps 
Maximum bit rate : 178 Kbps 
Channel(s) : 2 channels 
Channel positions : Front: L R 
Sampling rate : 48.0 KHz 
Compression mode : Lossy 
Stream size : 19.1 MiB (23%) 
Language : English 

